# MagicaVoxel @ Ephtracy

# group
g C4-0

# material
mtllib C4-0.mtl
usemtl palette

# normals
vn -1 0 0
vn 1 0 0
vn 0 0 1
vn 0 0 -1
vn 0 -1 0
vn 0 1 0

# texcoords
vt 0.173828 0.5
vt 0.857422 0.5
vt 0.990234 0.5
vt 0.994141 0.5

# verts
v -7.5 0 2
v -7.5 0 1
v -7.5 0 -1
v -7.5 0 -2
v -7.5 3 2
v -7.5 3 1
v -7.5 3 -1
v -7.5 3 -2
v -6.5 0 4
v -6.5 0 2
v -6.5 0 1
v -6.5 0 -1
v -6.5 0 -2
v -6.5 0 -4
v -6.5 2 4
v -6.5 2 3
v -6.5 2 -3
v -6.5 2 -4
v -6.5 3 3
v -6.5 3 2
v -6.5 3 1
v -6.5 3 -1
v -6.5 3 -2
v -6.5 3 -3
v -6.5 4 2
v -6.5 4 1
v -6.5 4 -1
v -6.5 4 -2
v -5.5 2 4
v -5.5 2 3
v -5.5 2 -3
v -5.5 2 -4
v -5.5 3 4
v -5.5 3 3
v -5.5 3 -3
v -5.5 3 -4
v -2.5 0 5
v -2.5 0 4
v -2.5 0 -4
v -2.5 0 -5
v -2.5 3 5
v -2.5 3 4
v -2.5 3 2
v -2.5 3 1
v -2.5 3 -1
v -2.5 3 -2
v -2.5 3 -4
v -2.5 3 -5
v -2.5 4 4
v -2.5 4 2
v -2.5 4 1
v -2.5 4 -1
v -2.5 4 -2
v -2.5 4 -4
v 1.5 0 5
v 1.5 0 4
v 1.5 0 -4
v 1.5 0 -5
v 1.5 3 5
v 1.5 3 4
v 1.5 3 2
v 1.5 3 -0
v 1.5 3 -1
v 1.5 3 -2
v 1.5 3 -4
v 1.5 3 -5
v 1.5 4 4
v 1.5 4 2
v 1.5 4 -0
v 1.5 4 -1
v 1.5 4 -2
v 1.5 4 -4
v -1.5 0 5
v -1.5 0 4
v -1.5 0 -4
v -1.5 0 -5
v -1.5 3 5
v -1.5 3 4
v -1.5 3 2
v -1.5 3 -0
v -1.5 3 -1
v -1.5 3 -2
v -1.5 3 -4
v -1.5 3 -5
v -1.5 4 4
v -1.5 4 2
v -1.5 4 -0
v -1.5 4 -1
v -1.5 4 -2
v -1.5 4 -4
v 2.5 0 5
v 2.5 0 4
v 2.5 0 -4
v 2.5 0 -5
v 2.5 3 5
v 2.5 3 4
v 2.5 3 2
v 2.5 3 1
v 2.5 3 -1
v 2.5 3 -2
v 2.5 3 -4
v 2.5 3 -5
v 2.5 4 4
v 2.5 4 2
v 2.5 4 1
v 2.5 4 -1
v 2.5 4 -2
v 2.5 4 -4
v 5.5 2 4
v 5.5 2 3
v 5.5 2 -3
v 5.5 2 -4
v 5.5 3 4
v 5.5 3 3
v 5.5 3 -3
v 5.5 3 -4
v 6.5 0 4
v 6.5 0 2
v 6.5 0 1
v 6.5 0 -1
v 6.5 0 -2
v 6.5 0 -4
v 6.5 2 4
v 6.5 2 3
v 6.5 2 -3
v 6.5 2 -4
v 6.5 3 3
v 6.5 3 2
v 6.5 3 1
v 6.5 3 -1
v 6.5 3 -2
v 6.5 3 -3
v 6.5 4 2
v 6.5 4 1
v 6.5 4 -1
v 6.5 4 -2
v 7.5 0 2
v 7.5 0 1
v 7.5 0 -1
v 7.5 0 -2
v 7.5 3 2
v 7.5 3 1
v 7.5 3 -1
v 7.5 3 -2
v -2.5 0 5
v -2.5 3 5
v -1.5 0 5
v -1.5 3 5
v 1.5 0 5
v 1.5 3 5
v 2.5 0 5
v 2.5 3 5
v -6.5 0 4
v -6.5 2 4
v -5.5 2 4
v -5.5 3 4
v -2.5 0 4
v -2.5 3 4
v -2.5 4 4
v -1.5 0 4
v -1.5 3 4
v -1.5 4 4
v 1.5 0 4
v 1.5 3 4
v 1.5 4 4
v 2.5 0 4
v 2.5 3 4
v 2.5 4 4
v 5.5 2 4
v 5.5 3 4
v 6.5 0 4
v 6.5 2 4
v -6.5 2 3
v -6.5 3 3
v -5.5 2 3
v -5.5 3 3
v 5.5 2 3
v 5.5 3 3
v 6.5 2 3
v 6.5 3 3
v -7.5 0 2
v -7.5 3 2
v -6.5 0 2
v -6.5 3 2
v -6.5 4 2
v -2.5 3 2
v -2.5 4 2
v -1.5 3 2
v -1.5 4 2
v 1.5 3 2
v 1.5 4 2
v 2.5 3 2
v 2.5 4 2
v 6.5 0 2
v 6.5 3 2
v 6.5 4 2
v 7.5 0 2
v 7.5 3 2
v -7.5 0 -1
v -7.5 3 -1
v -6.5 0 -1
v -6.5 3 -1
v -6.5 4 -1
v -2.5 3 -1
v -2.5 4 -1
v -1.5 3 -1
v -1.5 4 -1
v 1.5 3 -1
v 1.5 4 -1
v 2.5 3 -1
v 2.5 4 -1
v 6.5 0 -1
v 6.5 3 -1
v 6.5 4 -1
v 7.5 0 -1
v 7.5 3 -1
v -7.5 0 1
v -7.5 3 1
v -6.5 0 1
v -6.5 3 1
v -6.5 4 1
v -2.5 3 1
v -2.5 4 1
v 2.5 3 1
v 2.5 4 1
v 6.5 0 1
v 6.5 3 1
v 6.5 4 1
v 7.5 0 1
v 7.5 3 1
v -1.5 3 -0
v -1.5 4 -0
v 0.5 3 -0
v 0.5 4 -0
v 1.5 3 -0
v 1.5 4 -0
v -7.5 0 -2
v -7.5 3 -2
v -6.5 0 -2
v -6.5 3 -2
v -6.5 4 -2
v -2.5 3 -2
v -2.5 4 -2
v -1.5 3 -2
v -1.5 4 -2
v 1.5 3 -2
v 1.5 4 -2
v 2.5 3 -2
v 2.5 4 -2
v 6.5 0 -2
v 6.5 3 -2
v 6.5 4 -2
v 7.5 0 -2
v 7.5 3 -2
v -6.5 2 -3
v -6.5 3 -3
v -5.5 2 -3
v -5.5 3 -3
v 5.5 2 -3
v 5.5 3 -3
v 6.5 2 -3
v 6.5 3 -3
v -6.5 0 -4
v -6.5 2 -4
v -5.5 2 -4
v -5.5 3 -4
v -2.5 0 -4
v -2.5 3 -4
v -2.5 4 -4
v -1.5 0 -4
v -1.5 3 -4
v -1.5 4 -4
v 1.5 0 -4
v 1.5 3 -4
v 1.5 4 -4
v 2.5 0 -4
v 2.5 3 -4
v 2.5 4 -4
v 5.5 2 -4
v 5.5 3 -4
v 6.5 0 -4
v 6.5 2 -4
v -2.5 0 -5
v -2.5 3 -5
v -1.5 0 -5
v -1.5 3 -5
v 1.5 0 -5
v 1.5 3 -5
v 2.5 0 -5
v 2.5 3 -5
v -2.5 0 5
v -1.5 0 5
v 1.5 0 5
v 2.5 0 5
v -6.5 0 4
v -2.5 0 4
v -1.5 0 4
v 1.5 0 4
v 2.5 0 4
v 6.5 0 4
v -7.5 0 2
v -6.5 0 2
v -2.5 0 2
v -1.5 0 2
v 1.5 0 2
v 2.5 0 2
v 6.5 0 2
v 7.5 0 2
v -7.5 0 1
v -6.5 0 1
v -2.5 0 1
v -1.5 0 1
v 1.5 0 1
v 2.5 0 1
v 6.5 0 1
v 7.5 0 1
v -7.5 0 -1
v -6.5 0 -1
v -2.5 0 -1
v -1.5 0 -1
v 1.5 0 -1
v 2.5 0 -1
v 6.5 0 -1
v 7.5 0 -1
v -7.5 0 -2
v -6.5 0 -2
v -2.5 0 -2
v -1.5 0 -2
v 1.5 0 -2
v 2.5 0 -2
v 6.5 0 -2
v 7.5 0 -2
v -6.5 0 -4
v -2.5 0 -4
v -1.5 0 -4
v 1.5 0 -4
v 2.5 0 -4
v 6.5 0 -4
v -2.5 0 -5
v -1.5 0 -5
v 1.5 0 -5
v 2.5 0 -5
v -6.5 2 4
v -5.5 2 4
v 5.5 2 4
v 6.5 2 4
v -6.5 2 3
v -5.5 2 3
v 5.5 2 3
v 6.5 2 3
v -6.5 2 -3
v -5.5 2 -3
v 5.5 2 -3
v 6.5 2 -3
v -6.5 2 -4
v -5.5 2 -4
v 5.5 2 -4
v 6.5 2 -4
v -2.5 3 5
v -1.5 3 5
v 1.5 3 5
v 2.5 3 5
v -5.5 3 4
v -2.5 3 4
v -1.5 3 4
v 1.5 3 4
v 2.5 3 4
v 5.5 3 4
v -6.5 3 3
v -5.5 3 3
v 5.5 3 3
v 6.5 3 3
v -7.5 3 2
v -6.5 3 2
v -2.5 3 2
v -1.5 3 2
v 1.5 3 2
v 2.5 3 2
v 6.5 3 2
v 7.5 3 2
v -7.5 3 1
v -6.5 3 1
v -2.5 3 1
v 2.5 3 1
v 6.5 3 1
v 7.5 3 1
v -1.5 3 -0
v 0.5 3 -0
v 1.5 3 -0
v -7.5 3 -1
v -6.5 3 -1
v -2.5 3 -1
v -1.5 3 -1
v 1.5 3 -1
v 2.5 3 -1
v 6.5 3 -1
v 7.5 3 -1
v -7.5 3 -2
v -6.5 3 -2
v -2.5 3 -2
v -1.5 3 -2
v 1.5 3 -2
v 2.5 3 -2
v 6.5 3 -2
v 7.5 3 -2
v -6.5 3 -3
v -5.5 3 -3
v 5.5 3 -3
v 6.5 3 -3
v -5.5 3 -4
v -2.5 3 -4
v -1.5 3 -4
v 1.5 3 -4
v 2.5 3 -4
v 5.5 3 -4
v -2.5 3 -5
v -1.5 3 -5
v 1.5 3 -5
v 2.5 3 -5
v -2.5 4 4
v -1.5 4 4
v 1.5 4 4
v 2.5 4 4
v -6.5 4 2
v -2.5 4 2
v -1.5 4 2
v 1.5 4 2
v 2.5 4 2
v 6.5 4 2
v -6.5 4 1
v -2.5 4 1
v -1.5 4 1
v 0.5 4 1
v 1.5 4 1
v 2.5 4 1
v 6.5 4 1
v -1.5 4 -0
v 0.5 4 -0
v 1.5 4 -0
v -6.5 4 -1
v -2.5 4 -1
v -1.5 4 -1
v 1.5 4 -1
v 2.5 4 -1
v 6.5 4 -1
v -6.5 4 -2
v -2.5 4 -2
v -1.5 4 -2
v 1.5 4 -2
v 2.5 4 -2
v 6.5 4 -2
v -2.5 4 -4
v -1.5 4 -4
v 1.5 4 -4
v 2.5 4 -4

# faces
f 5/4/1 2/4/1 1/4/1
f 6/4/1 2/4/1 5/4/1
f 7/4/1 4/4/1 3/4/1
f 8/4/1 4/4/1 7/4/1
f 15/1/1 10/1/1 9/1/1
f 16/1/1 10/1/1 15/1/1
f 17/1/1 14/1/1 13/1/1
f 18/1/1 14/1/1 17/1/1
f 19/1/1 10/1/1 16/1/1
f 20/1/1 10/1/1 19/1/1
f 21/1/1 12/1/1 11/1/1
f 22/1/1 12/1/1 21/1/1
f 23/1/1 17/1/1 13/1/1
f 24/1/1 17/1/1 23/1/1
f 25/4/1 21/4/1 20/4/1
f 26/4/1 21/4/1 25/4/1
f 27/4/1 23/4/1 22/4/1
f 28/4/1 23/4/1 27/4/1
f 33/1/1 30/1/1 29/1/1
f 34/1/1 30/1/1 33/1/1
f 35/1/1 32/1/1 31/1/1
f 36/1/1 32/1/1 35/1/1
f 41/4/1 38/4/1 37/4/1
f 42/4/1 38/4/1 41/4/1
f 47/4/1 40/4/1 39/4/1
f 48/4/1 40/4/1 47/4/1
f 49/4/1 43/4/1 42/4/1
f 50/4/1 43/4/1 49/4/1
f 51/4/1 45/4/1 44/4/1
f 52/4/1 45/4/1 51/4/1
f 53/4/1 47/4/1 46/4/1
f 54/4/1 47/4/1 53/4/1
f 59/4/1 56/4/1 55/4/1
f 60/4/1 56/4/1 59/4/1
f 65/4/1 58/4/1 57/4/1
f 66/4/1 58/4/1 65/4/1
f 67/4/1 61/4/1 60/4/1
f 68/4/1 61/4/1 67/4/1
f 69/4/1 63/4/1 62/4/1
f 70/4/1 63/4/1 69/4/1
f 71/4/1 65/4/1 64/4/1
f 72/4/1 65/4/1 71/4/1
f 73/4/2 74/4/2 77/4/2
f 77/4/2 74/4/2 78/4/2
f 75/4/2 76/4/2 83/4/2
f 83/4/2 76/4/2 84/4/2
f 78/4/2 79/4/2 85/4/2
f 85/4/2 79/4/2 86/4/2
f 80/4/2 81/4/2 87/4/2
f 87/4/2 81/4/2 88/4/2
f 82/4/2 83/4/2 89/4/2
f 89/4/2 83/4/2 90/4/2
f 91/4/2 92/4/2 95/4/2
f 95/4/2 92/4/2 96/4/2
f 93/4/2 94/4/2 101/4/2
f 101/4/2 94/4/2 102/4/2
f 96/4/2 97/4/2 103/4/2
f 103/4/2 97/4/2 104/4/2
f 98/4/2 99/4/2 105/4/2
f 105/4/2 99/4/2 106/4/2
f 100/4/2 101/4/2 107/4/2
f 107/4/2 101/4/2 108/4/2
f 109/1/2 110/1/2 113/1/2
f 113/1/2 110/1/2 114/1/2
f 111/1/2 112/1/2 115/1/2
f 115/1/2 112/1/2 116/1/2
f 117/1/2 118/1/2 123/1/2
f 123/1/2 118/1/2 124/1/2
f 121/1/2 122/1/2 125/1/2
f 125/1/2 122/1/2 126/1/2
f 124/1/2 118/1/2 127/1/2
f 127/1/2 118/1/2 128/1/2
f 119/1/2 120/1/2 129/1/2
f 129/1/2 120/1/2 130/1/2
f 121/1/2 125/1/2 131/1/2
f 131/1/2 125/1/2 132/1/2
f 128/4/2 129/4/2 133/4/2
f 133/4/2 129/4/2 134/4/2
f 130/4/2 131/4/2 135/4/2
f 135/4/2 131/4/2 136/4/2
f 137/4/2 138/4/2 141/4/2
f 141/4/2 138/4/2 142/4/2
f 139/4/2 140/4/2 143/4/2
f 143/4/2 140/4/2 144/4/2
f 147/4/3 146/4/3 145/4/3
f 148/4/3 146/4/3 147/4/3
f 151/4/3 150/4/3 149/4/3
f 152/4/3 150/4/3 151/4/3
f 155/1/3 154/1/3 153/1/3
f 157/1/3 155/1/3 153/1/3
f 157/1/3 156/1/3 155/1/3
f 158/1/3 156/1/3 157/1/3
f 161/4/3 159/4/3 158/4/3
f 162/4/3 159/4/3 161/4/3
f 163/1/3 161/1/3 160/1/3
f 164/1/3 161/1/3 163/1/3
f 167/4/3 165/4/3 164/4/3
f 168/4/3 165/4/3 167/4/3
f 169/1/3 167/1/3 166/1/3
f 170/1/3 167/1/3 169/1/3
f 171/1/3 169/1/3 166/1/3
f 172/1/3 169/1/3 171/1/3
f 175/1/3 174/1/3 173/1/3
f 176/1/3 174/1/3 175/1/3
f 179/1/3 178/1/3 177/1/3
f 180/1/3 178/1/3 179/1/3
f 183/4/3 182/4/3 181/4/3
f 184/4/3 182/4/3 183/4/3
f 186/4/3 185/4/3 184/4/3
f 187/4/3 185/4/3 186/4/3
f 190/4/3 189/4/3 188/4/3
f 191/4/3 189/4/3 190/4/3
f 195/4/3 193/4/3 192/4/3
f 196/4/3 193/4/3 195/4/3
f 197/4/3 195/4/3 194/4/3
f 198/4/3 195/4/3 197/4/3
f 201/4/3 200/4/3 199/4/3
f 202/4/3 200/4/3 201/4/3
f 204/4/3 203/4/3 202/4/3
f 205/4/3 203/4/3 204/4/3
f 208/4/3 207/4/3 206/4/3
f 209/4/3 207/4/3 208/4/3
f 213/4/3 211/4/3 210/4/3
f 214/4/3 211/4/3 213/4/3
f 215/4/3 213/4/3 212/4/3
f 216/4/3 213/4/3 215/4/3
f 217/4/4 218/4/4 219/4/4
f 219/4/4 218/4/4 220/4/4
f 220/4/4 221/4/4 222/4/4
f 222/4/4 221/4/4 223/4/4
f 224/4/4 225/4/4 227/4/4
f 227/4/4 225/4/4 228/4/4
f 226/4/4 227/4/4 229/4/4
f 229/4/4 227/4/4 230/4/4
f 231/3/4 232/3/4 233/3/4
f 233/3/4 232/3/4 234/3/4
f 233/2/4 234/2/4 235/2/4
f 235/2/4 234/2/4 236/2/4
f 237/4/4 238/4/4 239/4/4
f 239/4/4 238/4/4 240/4/4
f 240/4/4 241/4/4 242/4/4
f 242/4/4 241/4/4 243/4/4
f 244/4/4 245/4/4 246/4/4
f 246/4/4 245/4/4 247/4/4
f 248/4/4 249/4/4 251/4/4
f 251/4/4 249/4/4 252/4/4
f 250/4/4 251/4/4 253/4/4
f 253/4/4 251/4/4 254/4/4
f 255/1/4 256/1/4 257/1/4
f 257/1/4 256/1/4 258/1/4
f 259/1/4 260/1/4 261/1/4
f 261/1/4 260/1/4 262/1/4
f 263/1/4 264/1/4 265/1/4
f 263/1/4 265/1/4 267/1/4
f 265/1/4 266/1/4 267/1/4
f 267/1/4 266/1/4 268/1/4
f 268/4/4 269/4/4 271/4/4
f 271/4/4 269/4/4 272/4/4
f 270/1/4 271/1/4 273/1/4
f 273/1/4 271/1/4 274/1/4
f 274/4/4 275/4/4 277/4/4
f 277/4/4 275/4/4 278/4/4
f 276/1/4 277/1/4 279/1/4
f 279/1/4 277/1/4 280/1/4
f 276/1/4 279/1/4 281/1/4
f 281/1/4 279/1/4 282/1/4
f 283/4/4 284/4/4 285/4/4
f 285/4/4 284/4/4 286/4/4
f 287/4/4 288/4/4 289/4/4
f 289/4/4 288/4/4 290/4/4
f 296/4/5 292/4/5 291/4/5
f 297/4/5 292/4/5 296/4/5
f 298/4/5 294/4/5 293/4/5
f 299/4/5 294/4/5 298/4/5
f 302/1/5 296/1/5 295/1/5
f 303/4/5 297/4/5 296/4/5
f 303/1/5 296/1/5 302/1/5
f 304/1/5 298/1/5 297/1/5
f 304/4/5 297/4/5 303/4/5
f 305/4/5 299/4/5 298/4/5
f 305/1/5 298/1/5 304/1/5
f 306/1/5 300/1/5 299/1/5
f 306/4/5 299/4/5 305/4/5
f 307/1/5 300/1/5 306/1/5
f 309/4/5 302/4/5 301/4/5
f 309/4/5 308/4/5 307/4/5
f 309/4/5 307/4/5 306/4/5
f 309/4/5 306/4/5 305/4/5
f 309/4/5 305/4/5 304/4/5
f 309/4/5 304/4/5 303/4/5
f 309/4/5 303/4/5 302/4/5
f 310/4/5 308/4/5 309/4/5
f 311/4/5 308/4/5 310/4/5
f 312/4/5 308/4/5 311/4/5
f 313/4/5 308/4/5 312/4/5
f 314/4/5 308/4/5 313/4/5
f 315/4/5 308/4/5 314/4/5
f 316/4/5 308/4/5 315/4/5
f 318/1/5 311/1/5 310/1/5
f 319/4/5 312/4/5 311/4/5
f 319/1/5 311/1/5 318/1/5
f 320/1/5 313/1/5 312/1/5
f 320/4/5 312/4/5 319/4/5
f 321/4/5 314/4/5 313/4/5
f 321/1/5 313/1/5 320/1/5
f 322/1/5 315/1/5 314/1/5
f 322/4/5 314/4/5 321/4/5
f 323/1/5 315/1/5 322/1/5
f 325/4/5 321/4/5 320/4/5
f 325/4/5 324/4/5 323/4/5
f 325/4/5 323/4/5 322/4/5
f 325/4/5 322/4/5 321/4/5
f 325/4/5 318/4/5 317/4/5
f 325/4/5 320/4/5 319/4/5
f 325/4/5 319/4/5 318/4/5
f 326/4/5 324/4/5 325/4/5
f 327/4/5 324/4/5 326/4/5
f 328/4/5 324/4/5 327/4/5
f 329/4/5 324/4/5 328/4/5
f 330/4/5 324/4/5 329/4/5
f 331/4/5 324/4/5 330/4/5
f 332/4/5 324/4/5 331/4/5
f 333/1/5 327/1/5 326/1/5
f 334/4/5 328/4/5 327/4/5
f 334/1/5 327/1/5 333/1/5
f 335/1/5 329/1/5 328/1/5
f 335/4/5 328/4/5 334/4/5
f 336/4/5 330/4/5 329/4/5
f 336/1/5 329/1/5 335/1/5
f 337/1/5 331/1/5 330/1/5
f 337/4/5 330/4/5 336/4/5
f 338/1/5 331/1/5 337/1/5
f 339/4/5 335/4/5 334/4/5
f 340/4/5 335/4/5 339/4/5
f 341/4/5 337/4/5 336/4/5
f 342/4/5 337/4/5 341/4/5
f 343/1/6 344/1/6 347/1/6
f 347/1/6 344/1/6 348/1/6
f 345/1/6 346/1/6 349/1/6
f 349/1/6 346/1/6 350/1/6
f 351/1/6 352/1/6 355/1/6
f 355/1/6 352/1/6 356/1/6
f 353/1/6 354/1/6 357/1/6
f 357/1/6 354/1/6 358/1/6
f 359/4/6 360/4/6 364/4/6
f 364/4/6 360/4/6 365/4/6
f 361/4/6 362/4/6 366/4/6
f 366/4/6 362/4/6 367/4/6
f 363/1/6 364/1/6 370/1/6
f 367/1/6 368/1/6 371/1/6
f 369/1/6 370/1/6 374/1/6
f 370/1/6 364/1/6 375/1/6
f 374/1/6 370/1/6 375/1/6
f 365/1/6 366/1/6 376/1/6
f 376/1/6 366/1/6 377/1/6
f 371/1/6 372/1/6 378/1/6
f 367/1/6 371/1/6 378/1/6
f 378/1/6 372/1/6 379/1/6
f 373/4/6 374/4/6 381/4/6
f 381/4/6 374/4/6 382/4/6
f 379/4/6 380/4/6 385/4/6
f 385/4/6 380/4/6 386/4/6
f 382/1/6 383/1/6 391/1/6
f 391/1/6 383/1/6 392/1/6
f 388/1/6 389/1/6 393/1/6
f 387/1/6 388/1/6 393/1/6
f 393/1/6 389/1/6 394/1/6
f 384/1/6 385/1/6 395/1/6
f 395/1/6 385/1/6 396/1/6
f 390/4/6 391/4/6 398/4/6
f 398/4/6 391/4/6 399/4/6
f 396/4/6 397/4/6 404/4/6
f 404/4/6 397/4/6 405/4/6
f 399/1/6 400/1/6 406/1/6
f 406/1/6 400/1/6 407/1/6
f 403/1/6 404/1/6 408/1/6
f 408/1/6 404/1/6 409/1/6
f 407/1/6 400/1/6 410/1/6
f 410/1/6 400/1/6 411/1/6
f 401/1/6 402/1/6 412/1/6
f 412/1/6 402/1/6 413/1/6
f 403/1/6 408/1/6 414/1/6
f 414/1/6 408/1/6 415/1/6
f 411/4/6 412/4/6 416/4/6
f 416/4/6 412/4/6 417/4/6
f 413/4/6 414/4/6 418/4/6
f 418/4/6 414/4/6 419/4/6
f 420/4/6 421/4/6 425/4/6
f 425/4/6 421/4/6 426/4/6
f 422/4/6 423/4/6 427/4/6
f 427/4/6 423/4/6 428/4/6
f 425/4/6 426/4/6 430/4/6
f 428/4/6 429/4/6 430/4/6
f 427/4/6 428/4/6 430/4/6
f 426/4/6 427/4/6 430/4/6
f 424/4/6 425/4/6 430/4/6
f 430/4/6 429/4/6 431/4/6
f 431/4/6 429/4/6 432/4/6
f 432/4/6 429/4/6 433/4/6
f 433/4/6 429/4/6 434/4/6
f 434/4/6 429/4/6 435/4/6
f 435/4/6 429/4/6 436/4/6
f 431/4/6 432/4/6 437/4/6
f 432/3/6 433/3/6 437/3/6
f 433/2/6 434/2/6 438/2/6
f 437/3/6 433/3/6 438/3/6
f 434/4/6 435/4/6 439/4/6
f 438/2/6 434/2/6 439/2/6
f 431/4/6 437/4/6 441/4/6
f 441/4/6 437/4/6 442/4/6
f 439/4/6 435/4/6 443/4/6
f 443/4/6 435/4/6 444/4/6
f 441/4/6 442/4/6 446/4/6
f 444/4/6 445/4/6 446/4/6
f 443/4/6 444/4/6 446/4/6
f 442/4/6 443/4/6 446/4/6
f 440/4/6 441/4/6 446/4/6
f 446/4/6 445/4/6 447/4/6
f 447/4/6 445/4/6 448/4/6
f 448/4/6 445/4/6 449/4/6
f 449/4/6 445/4/6 450/4/6
f 450/4/6 445/4/6 451/4/6
f 447/4/6 448/4/6 452/4/6
f 452/4/6 448/4/6 453/4/6
f 449/4/6 450/4/6 454/4/6
f 454/4/6 450/4/6 455/4/6
