# MagicaVoxel @ Ephtracy

# group
g C4-1

# material
mtllib C4-1.mtl
usemtl palette

# normals
vn -1 0 0
vn 1 0 0
vn 0 0 1
vn 0 0 -1
vn 0 -1 0
vn 0 1 0

# texcoords
vt 0.986328 0.5
vt 0.990234 0.5
vt 0.994141 0.5

# verts
v -4.5 0 1
v -4.5 0 -0
v -4.5 1 1
v -4.5 1 -0
v -2.5 1 1
v -2.5 1 -0
v -2.5 1 -1
v -2.5 2 1
v -2.5 2 -1
v -1.5 0 -0
v -1.5 0 -2
v -1.5 1 2
v -1.5 1 1
v -1.5 1 -0
v -1.5 1 -1
v -1.5 1 -2
v -1.5 2 2
v -1.5 2 1
v -1.5 2 -1
v -1.5 2 -2
v -1.5 3 1
v -1.5 3 -1
v -0.5 1 -2
v -0.5 1 -3
v -0.5 2 -1
v -0.5 2 -2
v -0.5 2 -3
v -0.5 3 -1
v -0.5 3 -2
v -0.5 1 -1
v -0.5 1 -2
v -0.5 2 -1
v -0.5 2 -2
v 2.5 0 1
v 2.5 0 -2
v 2.5 1 2
v 2.5 1 1
v 2.5 1 -1
v 2.5 1 -2
v 2.5 2 2
v 2.5 2 1
v 2.5 2 -1
v 2.5 2 -2
v 2.5 3 1
v 2.5 3 -2
v 3.5 1 1
v 3.5 1 -1
v 3.5 1 -2
v 3.5 1 -3
v 3.5 2 1
v 3.5 2 -1
v 3.5 2 -2
v 3.5 2 -3
v -1.5 1 2
v -1.5 2 2
v 2.5 1 2
v 2.5 2 2
v -4.5 0 1
v -4.5 1 1
v -2.5 1 1
v -2.5 2 1
v -1.5 0 1
v -1.5 1 1
v -1.5 2 1
v -1.5 3 1
v 2.5 0 1
v 2.5 1 1
v 2.5 2 1
v 2.5 3 1
v 3.5 1 1
v 3.5 2 1
v -0.5 1 -2
v -0.5 2 -2
v 2.5 1 -2
v 2.5 2 -2
v 3.5 1 -2
v 3.5 2 -2
v -4.5 0 -0
v -4.5 1 -0
v -2.5 1 -0
v -1.5 0 -0
v -1.5 1 -0
v -2.5 1 -1
v -2.5 2 -1
v -1.5 1 -1
v -1.5 2 -1
v -1.5 3 -1
v -0.5 1 -1
v -0.5 2 -1
v -0.5 3 -1
v 2.5 1 -1
v 2.5 2 -1
v 3.5 1 -1
v 3.5 2 -1
v -1.5 0 -2
v -1.5 1 -2
v -1.5 2 -2
v -0.5 1 -2
v -0.5 2 -2
v -0.5 3 -2
v 2.5 0 -2
v 2.5 1 -2
v 2.5 2 -2
v 2.5 3 -2
v -0.5 1 -3
v -0.5 2 -3
v 3.5 1 -3
v 3.5 2 -3
v -4.5 0 1
v -1.5 0 1
v 2.5 0 1
v -4.5 0 -0
v -1.5 0 -0
v -1.5 0 -2
v 2.5 0 -2
v -1.5 1 2
v 2.5 1 2
v -1.5 1 1
v 2.5 1 1
v 3.5 1 1
v -2.5 1 -0
v -1.5 1 -0
v -2.5 1 -1
v -1.5 1 -1
v 2.5 1 -1
v 3.5 1 -1
v -0.5 1 -2
v 2.5 1 -2
v 3.5 1 -2
v -0.5 1 -3
v 3.5 1 -3
v -0.5 2 -1
v 2.5 2 -1
v -0.5 2 -2
v 2.5 2 -2
v -4.5 1 1
v -2.5 1 1
v -4.5 1 -0
v -2.5 1 -0
v -0.5 1 -1
v 2.5 1 -1
v -0.5 1 -2
v 2.5 1 -2
v -1.5 2 2
v 2.5 2 2
v -2.5 2 1
v -1.5 2 1
v 2.5 2 1
v 3.5 2 1
v -2.5 2 -1
v -1.5 2 -1
v -0.5 2 -1
v 2.5 2 -1
v 3.5 2 -1
v -1.5 2 -2
v -0.5 2 -2
v 2.5 2 -2
v 3.5 2 -2
v -0.5 2 -3
v 3.5 2 -3
v -1.5 3 1
v 2.5 3 1
v -1.5 3 -1
v -0.5 3 -1
v -0.5 3 -2
v 2.5 3 -2

# faces
f 3/3/1 2/3/1 1/3/1
f 4/3/1 2/3/1 3/3/1
f 8/1/1 6/1/1 5/1/1
f 8/1/1 7/1/1 6/1/1
f 9/1/1 7/1/1 8/1/1
f 14/1/1 11/1/1 10/1/1
f 15/1/1 11/1/1 14/1/1
f 16/1/1 11/1/1 15/1/1
f 17/1/1 13/1/1 12/1/1
f 18/1/1 13/1/1 17/1/1
f 19/2/1 16/2/1 15/2/1
f 20/2/1 16/2/1 19/2/1
f 21/1/1 19/1/1 18/1/1
f 22/1/1 19/1/1 21/1/1
f 26/2/1 24/2/1 23/2/1
f 27/2/1 24/2/1 26/2/1
f 28/1/1 26/1/1 25/1/1
f 29/1/1 26/1/1 28/1/1
f 30/2/2 31/2/2 32/2/2
f 32/2/2 31/2/2 33/2/2
f 34/1/2 35/1/2 37/1/2
f 37/1/2 35/1/2 38/1/2
f 38/1/2 35/1/2 39/1/2
f 36/1/2 37/1/2 40/1/2
f 40/1/2 37/1/2 41/1/2
f 42/1/2 43/1/2 44/1/2
f 41/1/2 42/1/2 44/1/2
f 44/1/2 43/1/2 45/1/2
f 46/1/2 47/1/2 50/1/2
f 50/1/2 47/1/2 51/1/2
f 48/2/2 49/2/2 52/2/2
f 52/2/2 49/2/2 53/2/2
f 56/1/3 55/1/3 54/1/3
f 57/1/3 55/1/3 56/1/3
f 60/3/3 59/3/3 58/3/3
f 62/3/3 60/3/3 58/3/3
f 63/1/3 61/1/3 60/1/3
f 63/3/3 60/3/3 62/3/3
f 64/1/3 61/1/3 63/1/3
f 66/1/3 63/1/3 62/1/3
f 67/1/3 63/1/3 66/1/3
f 68/1/3 65/1/3 64/1/3
f 69/1/3 65/1/3 68/1/3
f 70/1/3 68/1/3 67/1/3
f 71/1/3 68/1/3 70/1/3
f 74/2/3 73/2/3 72/2/3
f 75/2/3 73/2/3 74/2/3
f 76/2/3 75/2/3 74/2/3
f 77/2/3 75/2/3 76/2/3
f 78/3/4 79/3/4 80/3/4
f 78/3/4 80/3/4 81/3/4
f 81/3/4 80/3/4 82/3/4
f 83/1/4 84/1/4 85/1/4
f 85/1/4 84/1/4 86/1/4
f 86/1/4 87/1/4 89/1/4
f 89/1/4 87/1/4 90/1/4
f 88/1/4 89/1/4 91/1/4
f 91/1/4 89/1/4 92/1/4
f 91/1/4 92/1/4 93/1/4
f 93/1/4 92/1/4 94/1/4
f 95/1/4 96/1/4 98/1/4
f 96/2/4 97/2/4 98/2/4
f 98/2/4 97/2/4 99/2/4
f 95/1/4 98/1/4 101/1/4
f 101/1/4 98/1/4 102/1/4
f 99/1/4 100/1/4 103/1/4
f 103/1/4 100/1/4 104/1/4
f 105/2/4 106/2/4 107/2/4
f 107/2/4 106/2/4 108/2/4
f 112/3/5 110/3/5 109/3/5
f 113/1/5 111/1/5 110/1/5
f 113/3/5 110/3/5 112/3/5
f 114/1/5 111/1/5 113/1/5
f 115/1/5 111/1/5 114/1/5
f 118/1/5 117/1/5 116/1/5
f 119/1/5 117/1/5 118/1/5
f 123/1/5 122/1/5 121/1/5
f 124/1/5 122/1/5 123/1/5
f 125/1/5 120/1/5 119/1/5
f 126/1/5 120/1/5 125/1/5
f 130/2/5 128/2/5 127/2/5
f 130/2/5 129/2/5 128/2/5
f 131/2/5 129/2/5 130/2/5
f 134/1/5 133/1/5 132/1/5
f 135/1/5 133/1/5 134/1/5
f 136/3/6 137/3/6 138/3/6
f 138/3/6 137/3/6 139/3/6
f 140/1/6 141/1/6 142/1/6
f 142/1/6 141/1/6 143/1/6
f 144/1/6 145/1/6 147/1/6
f 147/1/6 145/1/6 148/1/6
f 146/1/6 147/1/6 150/1/6
f 150/1/6 147/1/6 151/1/6
f 148/1/6 149/1/6 153/1/6
f 153/1/6 149/1/6 154/1/6
f 151/2/6 152/2/6 155/2/6
f 155/2/6 152/2/6 156/2/6
f 157/2/6 158/2/6 159/2/6
f 156/2/6 157/2/6 159/2/6
f 159/2/6 158/2/6 160/2/6
f 161/1/6 162/1/6 163/1/6
f 163/1/6 162/1/6 164/1/6
f 164/1/6 162/1/6 165/1/6
f 165/1/6 162/1/6 166/1/6
